<svg width="278" height="438" viewBox="0.35784912109375 0.16522216796875 277.2843017578125 437.6695556640625" fill="none" xmlns="http://www.w3.org/2000/svg">
<path d="M212.292 14.328V325.966C212.292 379.571 167.845 423.445 113.521 423.445C59.1969 423.445 14.75 379.571 14.75 325.966C14.75 272.362 59.1969 228.52 113.521 228.52C113.701 228.52 113.898 228.52 114.079 228.52H142.955V213.965H114.079C113.898 213.965 113.701 213.965 113.521 213.965C50.8293 213.965 0 264.121 0 325.982C0 387.844 50.8293 438 113.521 438C176.212 438 227.042 387.844 227.042 325.982V14.5385H277.494V0H226.828C218.822 0 212.292 6.42737 212.292 14.3442V14.328Z" fill="#009B80"/>
</svg>
