<svg width="40" height="55" viewBox="0.233001708984375 0.189117431640625 39.53399658203125 54.62176513671875" fill="none" xmlns="http://www.w3.org/2000/svg">
<path d="M19.8793 0C8.88185 0 0.0103578 8.79234 0 19.6416V48.7398C0 52.197 2.84064 55 6.34418 55H39.8078V52.7055H6.82323C4.33994 52.7055 2.32534 50.6792 2.32534 48.2288V19.6441C2.3357 10.098 10.2051 2.29965 19.8793 2.29965C29.5535 2.29965 37.4747 10.1082 37.4747 19.662C37.4747 29.2158 29.5613 36.9886 19.8793 36.9886H13.2244V39.2857H19.8793C30.8845 39.2857 39.8052 30.5215 39.8052 19.662C39.8052 8.80256 30.8845 0 19.8793 0Z" fill="#009B80"/>
</svg>
