<svg width="44" height="69" viewBox="0.2528076171875 0.1739349365234375 43.494384765625 68.65213012695312" fill="none" xmlns="http://www.w3.org/2000/svg">
<path d="M33.4432 2.25715V51.3509C33.4432 59.7954 26.4413 66.7072 17.8834 66.7072C9.32554 66.7072 2.32363 59.7954 2.32363 51.3509C2.32363 42.9063 9.32554 35.9997 17.8834 35.9997C17.9119 35.9997 17.9429 35.9997 17.9713 35.9997H22.5204V33.7068H17.9713C17.9429 33.7068 17.9119 33.7068 17.8834 33.7068C8.00735 33.7068 0 41.6081 0 51.3534C0 61.0987 8.00735 69 17.8834 69C27.7595 69 35.7669 61.0987 35.7669 51.3534V2.29031H43.7148V0H35.7333C34.4719 0 33.4432 1.01253 33.4432 2.2597V2.25715Z" fill="#009B80"/>
</svg>
