<svg width="29" height="30" viewBox="0.377777099609375 0.09796142578125 28.24444580078125 29.8040771484375" fill="none" xmlns="http://www.w3.org/2000/svg">
<path d="M25.8727 3.09323C26.3179 4.06641 25.5983 4.78161 25.1504 5.106L9.30328 16.0766H24.247C24.9615 16.0766 25.6138 16.4547 25.8727 17.0166C26.3179 17.9898 25.5983 18.705 25.1504 19.0294L9.30328 30H28.4301V27.8416H16.2846L26.5146 20.7612C28.1584 19.5683 28.7123 17.8059 27.9616 16.1609C27.3404 14.7995 25.883 13.9208 24.247 13.9208H16.2846L26.5146 6.84036C28.1584 5.64751 28.7149 3.88506 27.9616 2.2401C27.3404 0.878671 25.883 0 24.247 0H0V2.15836H24.247C24.9615 2.15836 25.6138 2.5364 25.8727 3.09834V3.09323Z" fill="#009B80"/>
</svg>
