<svg width="242" height="438" viewBox="0.2034912109375 0.1328582763671875 241.593017578125 437.7342834472656" fill="none" xmlns="http://www.w3.org/2000/svg">
<path d="M184.651 0.0161909C160.438 0.0161909 140.818 19.3764 140.818 43.2691V361.174C140.818 395.476 112.536 423.383 77.7747 423.383C43.0132 423.383 14.7315 395.476 14.7315 361.174C14.7315 326.873 43.0132 298.966 77.7747 298.966C77.9552 298.966 78.152 298.998 78.3324 298.998V298.966H107.205V284.43H78.3324C78.152 284.43 77.9552 284.43 77.7747 284.43C34.6796 284.43 0 318.666 0 361.207C0 403.747 34.6796 438 77.7747 438C120.87 438 155.566 403.747 155.566 361.207V43.3824C155.566 27.4539 168.657 14.5363 184.799 14.5363H241.74V0H184.684L184.651 0.0161909Z" fill="#009B80"/>
</svg>
