<svg width="38" height="69" viewBox="0.05206298828125 0.168853759765625 37.8958740234375 68.66229248046875" fill="none" xmlns="http://www.w3.org/2000/svg">
<path d="M29.0261 0.00254511C25.2199 0.00254511 22.1357 3.04585 22.1357 6.80163V56.7744C22.1357 62.1664 17.69 66.5532 12.2257 66.5532C6.76141 66.5532 2.3157 62.1664 2.3157 56.7744C2.3157 51.3825 6.76141 46.9956 12.2257 46.9956C12.2541 46.9956 12.285 47.0007 12.3134 47.0007V46.9956H16.8519V44.7106H12.3134C12.285 44.7106 12.2541 44.7106 12.2257 44.7106C5.45142 44.7106 0 50.0924 0 56.7795C0 63.4666 5.45142 68.851 12.2257 68.851C19 68.851 24.454 63.4666 24.454 56.7795V6.81945C24.454 4.31559 26.5118 2.28502 29.0493 2.28502H38V0H29.0312L29.0261 0.00254511Z" fill="#009B80"/>
</svg>
