<svg width="253" height="349" viewBox="0.4818115234375 0.3882904052734375 252.036376953125 348.2234191894531" fill="none" xmlns="http://www.w3.org/2000/svg">
<path d="M126.143 0C56.3594 0 0.0657252 55.7914 0 124.635V309.276C0 331.214 18.0251 349 40.2567 349H252.598V334.44H43.2965C27.5389 334.44 14.7553 321.583 14.7553 306.034V124.651C14.8211 64.0766 64.7558 14.5923 126.143 14.5923C187.531 14.5923 237.794 64.1414 237.794 124.764C237.794 185.388 187.58 234.71 126.143 234.71H83.9147V249.286H126.143C195.976 249.286 252.582 193.673 252.582 124.764C252.582 55.8562 195.976 0 126.143 0Z" fill="#009B80"/>
</svg>
