<svg width="181" height="191" viewBox="0.460113525390625 0.49688720703125 180.07977294921875 190.0062255859375" fill="none" xmlns="http://www.w3.org/2000/svg">
<path d="M181 177.253H25.7559C21.2079 177.253 17.0552 174.847 15.4074 171.27C12.5731 165.075 17.1541 160.522 20.0048 158.457L120.886 88.6186H25.7723C21.2243 88.6186 17.0717 86.2284 15.4404 82.6511C12.6061 76.4559 17.1871 71.903 20.0378 69.838L120.919 0H0V13.7399H76.4768L11.3536 58.8135C0.889764 66.407 -2.63658 77.6266 2.14219 88.0983C6.09703 96.765 15.3744 102.359 25.7888 102.359H76.4438L11.3207 147.432C0.856875 155.026 -2.68605 166.245 2.1092 176.717C6.06404 185.384 15.3415 190.977 25.7559 190.977H181V177.237V177.253Z" fill="#009B80"/>
</svg>
