<svg width="181" height="191" viewBox="0.468231201171875 0.49688720703125 180.06353759765625 190.0062255859375" fill="none" xmlns="http://www.w3.org/2000/svg">
<path d="M164.718 19.693C167.552 25.8887 162.971 30.442 160.12 32.5073L59.2292 102.352H154.368C158.917 102.352 163.07 104.758 164.718 108.336C167.552 114.532 162.971 119.085 160.12 121.15L59.2292 190.994H181V177.253H103.676L168.805 132.176C179.27 124.581 182.796 113.361 178.017 102.888C174.062 94.2207 164.784 88.6266 154.368 88.6266H103.676L168.805 43.549C179.27 35.9548 182.813 24.7341 178.017 14.2616C174.062 5.59404 164.784 0 154.368 0H0V13.7412H154.368C158.917 13.7412 163.07 16.1479 164.718 19.7255V19.693Z" fill="#009B80"/>
</svg>
