<svg width="16" height="32" viewBox="0.0921630859375 0.3975830078125 15.815673828125 31.204833984375" fill="none" xmlns="http://www.w3.org/2000/svg">
<path d="M15.9688 23.102V1.96645C15.9688 0.880541 15.0764 0 13.9759 0H8V3.93291H11.9831V7.02122H8V10.9541H11.9831V16.8355C10.8098 16.168 9.4517 15.7804 8 15.7804C3.58244 15.7804 0 19.3154 0 23.6745C0 28.0335 3.58244 31.5685 8 31.5685C12.4176 31.5685 16 28.0335 16 23.6745C16 23.4819 15.9844 23.2919 15.9714 23.102H15.9688ZM7.9974 27.6356C5.78342 27.6356 3.98309 25.8591 3.98309 23.6745C3.98309 21.4898 5.78342 19.7133 7.9974 19.7133C10.2114 19.7133 11.827 21.3383 11.9805 23.3844V23.6745H12.0091C12.0091 25.8591 10.2088 27.6356 7.9948 27.6356H7.9974Z" fill="#009B80"/>
</svg>
