<svg width="29" height="30" viewBox="0.376495361328125 0.09796142578125 28.24700927734375 29.8040771484375" fill="none" xmlns="http://www.w3.org/2000/svg">
<path d="M28.4327 27.8442H4.04592C3.33148 27.8442 2.67915 27.4662 2.4203 26.9042C1.97506 25.931 2.69468 25.2158 3.1425 24.8914L18.9897 13.9208H4.04849C3.33405 13.9208 2.68174 13.5453 2.42548 12.9834C1.98025 12.0102 2.69986 11.295 3.14768 10.9706L18.9948 0H0V2.15836H12.0135L1.7835 9.23882C0.13977 10.4317 -0.414172 12.1941 0.336509 13.8391C0.957763 15.2005 2.41512 16.0792 4.05108 16.0792H12.0083L1.77834 23.1596C0.134604 24.3525 -0.421943 26.1149 0.331327 27.7599C0.952581 29.1213 2.40995 30 4.04592 30H28.4327V27.8416V27.8442Z" fill="#009B80"/>
</svg>
